<mxfile host="app.diagrams.net" modified="2024-05-27T10:26:56.731Z" agent="Mozilla/5.0 (Windows NT 10.0; Win64; x64) AppleWebKit/537.36 (KHTML, like Gecko) Chrome/125.0.0.0 Safari/537.36" version="24.4.8" etag="JWCmJoMjMbcO1hs4Zoc4" type="github">
  <diagram name="Page-1" id="2CnQa2UJdRLRUxFLhkos">
    <mxGraphModel>
      <root>
        <mxCell id="0" />
        <mxCell id="1" parent="0" />
      </root>
    </mxGraphModel>
  </diagram>
</mxfile>
